<?xml version="1.0" encoding="utf-8"?>
<!-- Generator: Adobe Illustrator 18.0.0, SVG Export Plug-In . SVG Version: 6.00 Build 0)  -->
<!DOCTYPE svg PUBLIC "-//W3C//DTD SVG 1.1//EN" "http://www.w3.org/Graphics/SVG/1.1/DTD/svg11.dtd">
<svg version="1.1" id="Layer_1" xmlns="http://www.w3.org/2000/svg" xmlns:xlink="http://www.w3.org/1999/xlink" x="0px" y="0px"
	 viewBox="1163.7 2781.6 1280 434" enable-background="new 1163.7 2781.6 1280 434" xml:space="preserve">
<path fill="#231F20" d="M1971.6,2844.2c-4.2-1.7-8.5-3.4-12.9-5l9.9-26.8c4.6,1.7,9.2,3.5,13.7,5.3L1971.6,2844.2z M2060.3,2858.1
	c-4.1-2.6-8.3-5.2-12.4-7.7l-14.7,24.5c3.9,2.4,7.8,4.8,11.7,7.3L2060.3,2858.1z M2022.3,2836.1c-4.3-2.2-8.7-4.4-13.1-6.5
	l-12.4,25.8c4.1,2,8.3,4,12.3,6.2L2022.3,2836.1z M1854.9,2785.7c-4.8-0.5-9.7-1-14.6-1.3l-2.2,28.5c4.6,0.3,9.1,0.8,13.7,1.3
	L1854.9,2785.7z M1898.3,2792.4c-4.8-1-9.6-1.9-14.4-2.7l-4.8,28.2c4.5,0.8,9,1.6,13.5,2.5L1898.3,2792.4z M1940.9,2803.1
	c-4.7-1.4-9.3-2.7-14.1-4l-7.4,27.6c4.4,1.2,8.9,2.4,13.2,3.8L1940.9,2803.1z M2187.2,3029l24.5-14.7c-2.5-4.2-5.1-8.3-7.7-12.4
	l-24,15.4C2182.4,3021.2,2184.9,3025.1,2187.2,3029z M2164.4,2994.7l23.1-16.9c-2.9-3.9-5.8-7.8-8.8-11.7l-22.5,17.6
	C2159,2987.3,2161.7,2991,2164.4,2994.7z M2096.1,2883.5c-3.8-3-7.7-5.9-11.7-8.8l-16.9,23c3.7,2.7,7.4,5.5,11,8.3L2096.1,2883.5z
	 M2129.4,2912.1c-3.6-3.3-7.2-6.6-10.8-9.9l-18.9,21.4c3.4,3,6.8,6.1,10.2,9.3L2129.4,2912.1z M2138.6,2962.6l21.4-18.9
	c-3.2-3.7-6.5-7.3-9.9-10.8l-20.8,19.6C2132.4,2955.7,2135.5,2959.1,2138.6,2962.6z M1797.9,2811.6c4.3-0.1,8.5,0,12.8,0l0.5-28.6
	c-4.5-0.1-9.1-0.1-13.6,0l-1,0l0.4,28.6L1797.9,2811.6z M1478.6,2952l-20.8-19.6c-3.3,3.6-6.6,7.2-9.9,10.8l21.4,18.9
	C1472.4,2958.7,1475.5,2955.3,1478.6,2952z M1508.2,2923.3l-18.9-21.4c-3.7,3.2-7.3,6.5-10.8,9.9l19.6,20.8
	C1501.4,2929.4,1504.8,2926.3,1508.2,2923.3z M1427.8,3016.9l-24-15.5c-2.6,4.1-5.2,8.3-7.7,12.4l24.5,14.7
	C1422.9,3024.7,1425.3,3020.8,1427.8,3016.9z M1540.4,2897.4l-16.9-23.1c-3.9,2.9-7.8,5.8-11.7,8.8l17.6,22.5
	C1533,2902.9,1536.7,2900.1,1540.4,2897.4z M1451.7,2983.3l-22.5-17.6c-3,3.8-6,7.7-8.8,11.7l23,16.9
	C1446.1,2990.5,1448.9,2986.9,1451.7,2983.3z M1574.7,2874.7l-14.7-24.5c-4.2,2.5-8.3,5.1-12.4,7.7l15.4,24
	C1566.9,2879.4,1570.8,2877,1574.7,2874.7z M1728.5,2817.9l-4.8-28.2c-4.8,0.8-9.6,1.7-14.4,2.7l5.6,28
	C1719.5,2819.5,1724,2818.6,1728.5,2817.9z M1688.2,2826.6l-7.4-27.6c-4.7,1.3-9.4,2.6-14.1,4l8.2,27.4
	C1679.4,2829.1,1683.8,2827.8,1688.2,2826.6z M1648.9,2839.1l-9.9-26.8c-4.6,1.7-9.1,3.5-13.7,5.3l10.7,26.5
	C1640.3,2842.4,1644.6,2840.7,1648.9,2839.1z M1769.5,2812.9l-2.2-28.5c-4.9,0.4-9.7,0.8-14.6,1.3l3,28.4
	C1760.3,2813.6,1764.9,2813.2,1769.5,2812.9z M1611,2855.2l-12.3-25.8c-4.4,2.1-8.8,4.3-13.1,6.5l13.1,25.4
	C1602.8,2859.2,1606.9,2857.2,1611,2855.2z M1216,3103c9.1-8.1,19.9-12,32.5-11.8c15.7,0.3,28.7,7.1,39.1,20.4l21.2-23.2
	c-16.2-19-36.6-28.7-61.2-29.1c-22-0.4-40.7,6.7-56.2,21.3c-15.5,14.6-23.4,33-23.8,55.2c-0.4,22.2,6.8,40.7,21.4,55.6
	c14.7,14.8,33.5,22.4,56.6,22.8c23.1,0.4,43.3-8.8,60.6-27.7l-21-22.4c-10.7,12.8-24.2,19.1-40.6,18.8c-12-0.2-22.1-4.6-30.4-13.2
	c-8.3-8.6-12.3-19.8-12.1-33.8C1202.2,3122.1,1206.9,3111.1,1216,3103z M1451.7,3125.7l-59.6-1l1.1-62.6l-33.4-0.6l-2.6,149.8
	l33.4,0.6l1-58.9l59.6,1l-1,58.9l33.4,0.6l2.6-149.8l-33.4-0.6L1451.7,3125.7z M1639.5,3159.4l37,54.2l-41.1-0.7l-32.4-48.4
	l-23.1-0.4l-0.8,47.8l-33.4-0.6l2.6-149.8l56.8,1c23.3,0.4,39.8,4.6,49.6,12.7c9.8,8,14.5,20.8,14.2,38.2
	C1668.4,3137.4,1658.7,3152.7,1639.5,3159.4z M1634.8,3112.9c0.1-8.1-1.9-13.6-6.1-16.7c-4.2-3.1-11.7-4.7-22.4-4.9l-25.1-0.4
	l-0.8,44.3l24.4,0.4c11.4,0.2,19.2-1.5,23.5-5.2C1632.5,3126.8,1634.6,3121,1634.8,3112.9z M2034.4,3159.6l-71.8-97.7l-31.3-0.5
	l-2.6,149.8l33.4,0.6l1.6-93.8l69.7,95.1l33.4,0.6l2.6-149.8l-33.4-0.6L2034.4,3159.6z M2257.2,3082.3c14.9,15,22.1,33.6,21.7,55.6
	c-0.4,22-8.3,40.3-23.7,54.8c-15.4,14.5-34.2,21.6-56.3,21.2c-22.1-0.4-40.7-8.1-55.5-23.2c-14.9-15-22.1-33.6-21.7-55.6
	c0.4-22,8.3-40.3,23.7-54.8c15.4-14.5,34.2-21.6,56.3-21.2C2223.8,3059.5,2242.3,3067.3,2257.2,3082.3z M2244.8,3137.4
	c0.2-13.4-3.9-24.8-12.3-34.4c-8.4-9.6-18.9-14.5-31.4-14.7s-23.1,4.3-31.8,13.6c-8.7,9.3-13.2,20.6-13.4,33.9
	c-0.2,13.4,3.9,24.8,12.3,34.3c8.4,9.5,18.9,14.4,31.4,14.6c12.5,0.2,23.1-4.3,31.8-13.5C2240.1,3162,2244.6,3150.7,2244.8,3137.4z
	 M2428.7,3139c-7.7-7.1-18.7-12.6-32.8-16.3c-14.2-3.7-23.2-6.9-27.1-9.6c-3.9-2.6-5.8-6.1-5.7-10.5c0.1-4.4,1.7-7.8,5-10.4
	c3.3-2.6,7.7-3.8,13.2-3.7c13.9,0.2,27.2,5.4,40,15.5l17.3-24.1c-7.3-6.4-15.9-11.4-25.9-15c-9.9-3.6-19.9-5.5-29.9-5.7
	c-15.3-0.3-28.1,3.4-38.4,10.9c-10.4,7.5-15.6,18.4-15.9,32.6c-0.2,14.2,3.6,24.7,11.6,31.5c8,6.8,20.6,12.4,38,16.8
	c10.9,2.9,18.3,5.7,21.9,8.4c3.7,2.7,5.5,6.3,5.4,10.8c-0.1,4.5-1.9,8-5.4,10.6c-3.6,2.6-8.4,3.8-14.5,3.7
	c-13.7-0.2-28.5-7.6-44.4-22l-20.4,24.1c18.7,17.9,39.9,27.1,63.6,27.5c16.4,0.3,29.8-3.7,40-11.8c10.2-8.2,15.4-19,15.7-32.4
	C2440.2,3156.4,2436.5,3146.2,2428.7,3139z M1901.8,2877l-59.7,194.8c4.5,3,8.7,6.4,12.7,10.4c14.9,15,22.1,33.6,21.7,55.6
	c-0.4,22-8.3,40.3-23.7,54.8c-15.4,14.5-34.2,21.6-56.3,21.2c-22.1-0.4-40.7-8.1-55.5-23.2c-14.9-15-22.1-33.6-21.7-55.6
	c0.4-22,8.3-40.3,23.7-54.8c15.4-14.5,34.2-21.6,56.3-21.2c4.6,0.1,9,0.6,13.2,1.3L1901.8,2877z M1842.5,3137.4
	c0.2-13.4-3.9-24.8-12.3-34.4c-8.4-9.6-18.9-14.5-31.4-14.7s-23.1,4.3-31.8,13.6c-8.7,9.3-13.2,20.6-13.4,33.9
	c-0.2,13.4,3.9,24.8,12.3,34.3c8.4,9.5,18.9,14.4,31.4,14.6c12.5,0.2,23.1-4.3,31.8-13.5C1837.8,3162,1842.3,3150.7,1842.5,3137.4z"
	/>
</svg>
