<?xml version="1.0" encoding="utf-8"?>
<!-- Generator: Adobe Illustrator 18.0.0, SVG Export Plug-In . SVG Version: 6.00 Build 0)  -->
<!DOCTYPE svg PUBLIC "-//W3C//DTD SVG 1.1//EN" "http://www.w3.org/Graphics/SVG/1.1/DTD/svg11.dtd">
<svg version="1.1" id="Layer_1" xmlns="http://www.w3.org/2000/svg" xmlns:xlink="http://www.w3.org/1999/xlink" x="0px" y="0px"
	 viewBox="0 0 1792 1792" enable-background="new 0 0 1792 1792" xml:space="preserve">
<path d="M896,768c158,0,305.7-14.3,443-43s245.7-71,325-127v170c0,46-34.3,88.7-103,128s-162,70.5-280,93.5s-246.3,34.5-385,34.5
	s-267-11.5-385-34.5S299.7,935.3,231,896s-103-82-103-128V598c79.3,56,187.7,98.3,325,127S738,768,896,768z M896,1536
	c158,0,305.7-14.3,443-43s245.7-71,325-127v170c0,46-34.3,88.7-103,128s-162,70.5-280,93.5s-246.3,34.5-385,34.5s-267-11.5-385-34.5
	s-211.3-54.2-280-93.5s-103-82-103-128v-170c79.3,56,187.7,98.3,325,127S738,1536,896,1536z M896,1152c158,0,305.7-14.3,443-43
	s245.7-71,325-127v170c0,46-34.3,88.7-103,128s-162,70.5-280,93.5s-246.3,34.5-385,34.5s-267-11.5-385-34.5s-211.3-54.2-280-93.5
	s-103-82-103-128V982c79.3,56,187.7,98.3,325,127S738,1152,896,1152z M896,0c138.7,0,267,11.5,385,34.5s211.3,54.2,280,93.5
	s103,82,103,128v128c0,46-34.3,88.7-103,128s-162,70.5-280,93.5S1034.7,640,896,640s-267-11.5-385-34.5S299.7,551.3,231,512
	s-103-82-103-128V256c0-46,34.3-88.7,103-128s162-70.5,280-93.5S757.3,0,896,0z"/>
</svg>
