<?xml version="1.0" encoding="utf-8"?>
<!-- Generator: Adobe Illustrator 18.0.0, SVG Export Plug-In . SVG Version: 6.00 Build 0)  -->
<!DOCTYPE svg PUBLIC "-//W3C//DTD SVG 1.1//EN" "http://www.w3.org/Graphics/SVG/1.1/DTD/svg11.dtd">
<svg version="1.1" id="Layer_1" xmlns="http://www.w3.org/2000/svg" xmlns:xlink="http://www.w3.org/1999/xlink" x="0px" y="0px"
	 viewBox="0 0 1792 1792" enable-background="new 0 0 1792 1792" xml:space="preserve">
<path d="M1596,380c18.7,18.7,34.7,44,48,76s20,61.3,20,88v1152c0,26.7-9.3,49.3-28,68s-41.3,28-68,28H224c-26.7,0-49.3-9.3-68-28
	s-28-41.3-28-68V96c0-26.7,9.3-49.3,28-68s41.3-28,68-28h896c26.7,0,56,6.7,88,20s57.3,29.3,76,48L1596,380z M1152,136v376h376
	c-6.7-19.3-14-33-22-41l-313-313C1185,150,1171.3,142.7,1152,136z M1536,1664V640h-416c-26.7,0-49.3-9.3-68-28s-28-41.3-28-68V128
	H256v1536H1536z M512,800c0-9.3,3-17,9-23s13.7-9,23-9h704c9.3,0,17,3,23,9s9,13.7,9,23v64c0,9.3-3,17-9,23s-13.7,9-23,9H544
	c-9.3,0-17-3-23-9s-9-13.7-9-23V800z M1248,1024c9.3,0,17,3,23,9s9,13.7,9,23v64c0,9.3-3,17-9,23s-13.7,9-23,9H544c-9.3,0-17-3-23-9
	s-9-13.7-9-23v-64c0-9.3,3-17,9-23s13.7-9,23-9H1248z M1248,1280c9.3,0,17,3,23,9s9,13.7,9,23v64c0,9.3-3,17-9,23s-13.7,9-23,9H544
	c-9.3,0-17-3-23-9s-9-13.7-9-23v-64c0-9.3,3-17,9-23s13.7-9,23-9H1248z"/>
</svg>
