<?xml version="1.0" encoding="utf-8"?>
<!-- Generator: Adobe Illustrator 18.0.0, SVG Export Plug-In . SVG Version: 6.00 Build 0)  -->
<!DOCTYPE svg PUBLIC "-//W3C//DTD SVG 1.1//EN" "http://www.w3.org/Graphics/SVG/1.1/DTD/svg11.dtd">
<svg version="1.1" id="Layer_1" xmlns="http://www.w3.org/2000/svg" xmlns:xlink="http://www.w3.org/1999/xlink" x="0px" y="0px"
	 viewBox="0 0 1792 1792" enable-background="new 0 0 1792 1792" xml:space="preserve">
<path d="M560.1,1389.9l-49,49c-6.5,6.5-14,9.8-22.5,9.8s-16-3.3-22.5-9.8L9.8,982.5C3.3,976,0,968.5,0,960s3.3-16,9.8-22.5
	l456.3-456.3c6.5-6.5,14-9.8,22.5-9.8s16,3.3,22.5,9.8l49,49c6.5,6.5,9.8,14,9.8,22.5c0,8.5-3.3,16-9.8,22.5L175.3,960l384.8,384.8
	c6.5,6.5,9.8,14,9.8,22.5C569.9,1375.8,566.7,1383.4,560.1,1389.9z M1138.9,345L773.6,1609.2c-2.6,8.5-7.7,14.9-15.2,19.1
	s-15.2,5.1-23,2.4l-60.7-16.6c-8.5-2.6-14.9-7.7-19.1-15.2c-4.2-7.5-5.1-15.5-2.4-24l365.3-1264.2c2.6-8.5,7.7-14.9,15.2-19.1
	c7.5-4.2,15.2-5.1,23-2.4l60.7,16.6c8.5,2.6,14.9,7.7,19.1,15.2C1140.6,328.6,1141.5,336.6,1138.9,345z M1782.2,982.5l-456.3,456.3
	c-6.5,6.5-14,9.8-22.5,9.8c-8.5,0-16-3.3-22.5-9.8l-49-49c-6.5-6.5-9.8-14-9.8-22.5c0-8.5,3.3-16,9.8-22.5L1616.7,960l-384.8-384.8
	c-6.5-6.5-9.8-14-9.8-22.5c0-8.5,3.3-16,9.8-22.5l49-49c6.5-6.5,14-9.8,22.5-9.8c8.5,0,16,3.3,22.5,9.8l456.3,456.3
	c6.5,6.5,9.8,14,9.8,22.5S1788.7,976,1782.2,982.5z"/>
</svg>
