<?xml version="1.0" encoding="utf-8"?>
<!-- Generator: Adobe Illustrator 18.0.0, SVG Export Plug-In . SVG Version: 6.00 Build 0)  -->
<!DOCTYPE svg PUBLIC "-//W3C//DTD SVG 1.1//EN" "http://www.w3.org/Graphics/SVG/1.1/DTD/svg11.dtd">
<svg version="1.1" id="Layer_1" xmlns="http://www.w3.org/2000/svg" xmlns:xlink="http://www.w3.org/1999/xlink" x="0px" y="0px"
	 viewBox="0 5744 256 256" enable-background="new 0 5744 256 256" xml:space="preserve">
<g>
	<path fill="#171A1A" d="M255.9,5935.6c0,35.4-29,64.4-64.4,64.4H64.4C29,6000,0,5971,0,5935.6v-127.2c0-35.4,29-64.4,64.4-64.4
		h127.3c35.4,0,64.4,29,64.4,64.4L255.9,5935.6L255.9,5935.6z"/>
	<path fill="#E96247" d="M202.9,5752.1L161.5,5892c3.4,2.2,6.5,4.8,9.5,7.8c11.1,11.2,16.5,25.1,16.2,41.5
		c-0.3,16.4-6.2,30.1-17.7,40.9c-11.5,10.8-25.5,16.1-42,15.8c-16.5-0.3-30.4-6-41.4-17.3c-11.1-11.2-16.5-25.1-16.2-41.5
		c0.3-16.4,6.2-30.1,17.7-40.9s25.5-16.1,42-15.8c3.4,0.1,6.7,0.4,9.8,1L202.9,5752.1z M161.8,5941c0.1-10-2.9-18.5-9.2-25.7
		c-6.3-7.2-14.1-10.8-23.4-11s-17.2,3.2-23.7,10.1c-6.5,6.9-9.8,15.4-10,25.3c-0.1,10,2.9,18.5,9.2,25.6
		c6.3,7.1,14.1,10.7,23.4,10.9c9.3,0.1,17.2-3.2,23.7-10.1C158.3,5959.3,161.7,5950.9,161.8,5941z"/>
</g>
</svg>
